<svg xmlns="http://www.w3.org/2000/svg" viewBox="0 0 91.41 27.26"><defs><style>.cls-1{fill:#1d1d1b;}.cls-2{fill:#a8b64a;}</style></defs><g id="Capa_2" data-name="Capa 2"><g id="Capa_1-2" data-name="Capa 1"><path class="cls-1" d="M17.14,26a10,10,0,0,1-5.27,1.31A11,11,0,0,1,3.43,23.7C1.14,21.3,0,18,0,13.89S1.15,6.33,3.46,3.8A11.81,11.81,0,0,1,12.62,0a12,12,0,0,1,7.94,2.5A9.34,9.34,0,0,1,24,8.75H18.67a5.08,5.08,0,0,0-3-3.71,7.49,7.49,0,0,0-3-.58A6.45,6.45,0,0,0,7.55,6.83q-2,2.37-2,7.11c0,3.19.72,5.44,2.18,6.77a7.15,7.15,0,0,0,5,2,6.4,6.4,0,0,0,4.47-1.57A6.79,6.79,0,0,0,19.28,17h-6V12.67H24.08V26.58H20.5L20,23.34A12.62,12.62,0,0,1,17.14,26Z"/><path class="cls-1" d="M45.25,21a6.37,6.37,0,0,1-1.78,3.47,8.71,8.71,0,0,1-6.89,2.79,9.7,9.7,0,0,1-6.45-2.35c-1.86-1.57-2.8-4.13-2.8-7.67,0-3.31.84-5.86,2.53-7.63A8.61,8.61,0,0,1,36.4,6.91a10.16,10.16,0,0,1,4.31.89,7.67,7.67,0,0,1,3.17,2.83,9.79,9.79,0,0,1,1.45,4,24.48,24.48,0,0,1,.16,3.8H32.38c.07,1.92.67,3.27,1.81,4a4.26,4.26,0,0,0,2.5.72,3.58,3.58,0,0,0,2.51-.88A4.06,4.06,0,0,0,40.13,21ZM30.94.33h4.59V4.5H30.94Zm9.35,14.75a4.3,4.3,0,0,0-1.21-3,3.71,3.71,0,0,0-2.68-1,3.36,3.36,0,0,0-2.69,1.09,5.49,5.49,0,0,0-1.21,2.95ZM38,.33h4.59V4.5H38Z"/><path class="cls-1" d="M59.62,12.69a2.45,2.45,0,0,0-2.47-1.39,3,3,0,0,0-2.89,1.39,5.36,5.36,0,0,0-.4,2.36V26.58H48.78V7.45h4.87v2.8a8,8,0,0,1,1.76-2.13A7,7,0,0,1,62.74,8a5.75,5.75,0,0,1,1.65,2.31,6.26,6.26,0,0,1,2.44-2.48A7.43,7.43,0,0,1,70.28,7a6.61,6.61,0,0,1,2.49.49,5.59,5.59,0,0,1,3.33,4.18,18,18,0,0,1,.17,2.83l0,12.08H71.1V14.38a3.88,3.88,0,0,0-.35-1.79,2.49,2.49,0,0,0-2.46-1.34A2.86,2.86,0,0,0,65.43,13a5.4,5.4,0,0,0-.41,2.2V26.58H60V15.17A6.28,6.28,0,0,0,59.62,12.69Z"/><path class="cls-2" d="M90.58,3.55l.83,2.62L87.66,7.33l2.45,3.5-2.25,1.6L85.41,9.12,82.9,12.43l-2.25-1.6,2.46-3.5L79.37,6.17l.82-2.62,3.68,1.2V.51h3V4.75Z"/></g></g></svg>