<?xml version="1.0" encoding="utf-8"?>
<!-- Generator: Adobe Illustrator 26.1.0, SVG Export Plug-In . SVG Version: 6.00 Build 0)  -->
<svg version="1.1" id="Capa_1" xmlns="http://www.w3.org/2000/svg" xmlns:xlink="http://www.w3.org/1999/xlink" x="0px" y="0px"
	 viewBox="0 0 133.2 90.1" style="enable-background:new 0 0 133.2 90.1;" xml:space="preserve">
<style type="text/css">
	.st0{fill:#A8B64A;}
</style>
<g>
	<path d="M37,57.4c-1.4,0.9-3.2,1.3-5.3,1.3c-3.4,0-6.2-1.2-8.4-3.6c-2.3-2.4-3.4-5.7-3.4-9.8c0-4.2,1.2-7.6,3.5-10.1
		s5.4-3.8,9.2-3.8c3.3,0,5.9,0.8,7.9,2.5s3.1,3.8,3.4,6.2h-5.3c-0.4-1.8-1.4-3-3-3.7c-0.9-0.4-1.9-0.6-3-0.6c-2.1,0-3.8,0.8-5.1,2.4
		s-2,3.9-2,7.1c0,3.2,0.7,5.4,2.2,6.8s3.1,2,5,2c1.8,0,3.3-0.5,4.5-1.6s1.9-2.4,2.1-4.1h-6v-4.3H44V58h-3.6l-0.5-3.2
		C38.8,56,37.9,56.9,37,57.4z"/>
	<path d="M65.1,52.4c-0.1,1.1-0.7,2.3-1.8,3.5c-1.6,1.9-3.9,2.8-6.9,2.8c-2.4,0-4.6-0.8-6.5-2.4s-2.8-4.1-2.8-7.7
		c0-3.3,0.8-5.9,2.5-7.6s3.9-2.7,6.5-2.7c1.6,0,3,0.3,4.3,0.9s2.3,1.5,3.2,2.8c0.8,1.1,1.2,2.5,1.5,4c0.1,0.9,0.2,2.1,0.2,3.8H52.3
		c0.1,1.9,0.7,3.3,1.8,4c0.7,0.5,1.5,0.7,2.5,0.7c1,0,1.9-0.3,2.5-0.9c0.4-0.3,0.7-0.8,0.9-1.3H65.1z M50.8,31.8h4.6v4.2h-4.6V31.8z
		 M60.2,46.5c-0.1-1.3-0.5-2.3-1.2-3s-1.6-1-2.7-1c-1.2,0-2.1,0.4-2.7,1.1s-1,1.7-1.2,3H60.2z M57.9,31.8h4.6v4.2h-4.6V31.8z"/>
	<path d="M79.5,44.1c-0.4-0.9-1.2-1.4-2.5-1.4c-1.4,0-2.4,0.5-2.9,1.4c-0.3,0.5-0.4,1.3-0.4,2.4V58h-5.1V38.9h4.9v2.8
		c0.6-1,1.2-1.7,1.8-2.1c1-0.8,2.2-1.1,3.8-1.1c1.5,0,2.6,0.3,3.6,1c0.7,0.6,1.3,1.4,1.7,2.3c0.7-1.1,1.5-2,2.4-2.5
		c1-0.5,2.2-0.8,3.4-0.8c0.8,0,1.7,0.2,2.5,0.5s1.6,0.9,2.2,1.7c0.5,0.7,0.9,1.5,1.1,2.5c0.1,0.6,0.2,1.6,0.2,2.8l0,12.1H91V45.8
		c0-0.7-0.1-1.3-0.4-1.8c-0.4-0.9-1.3-1.3-2.5-1.3c-1.4,0-2.3,0.6-2.9,1.7c-0.3,0.6-0.4,1.3-0.4,2.2V58h-5V46.6
		C79.9,45.5,79.8,44.6,79.5,44.1z"/>
	<path class="st0" d="M110.5,35l0.8,2.6l-3.7,1.2l2.4,3.5l-2.2,1.6l-2.4-3.3l-2.5,3.3l-2.2-1.6l2.5-3.5l-3.7-1.2l0.8-2.6l3.7,1.2
		v-4.2h3v4.2L110.5,35z"/>
</g>
</svg>
